<svg width="40" height="40" viewBox="0 0 40 40" fill="none" xmlns="http://www.w3.org/2000/svg">
  <!-- Background circle with gradient -->
  <defs>
    <linearGradient id="logoGradient" x1="0%" y1="0%" x2="100%" y2="100%">
      <stop offset="0%" style="stop-color:#6D4AFF;stop-opacity:1" />
      <stop offset="100%" style="stop-color:#8B7FFF;stop-opacity:1" />
    </linearGradient>
  </defs>

  <!-- Outer circle -->
  <circle cx="20" cy="20" r="20" fill="url(#logoGradient)"/>

  <!-- Audio waveform integrated with "V" shape -->
  <!-- Left side of V with waveform peaks -->
  <path d="M12 10 L12 13 L13 10 L14 15 L15 12 L16 10 L17 14 L18 11 L19 13 L20 8"
        stroke="white" stroke-width="1.5" stroke-linecap="round" stroke-linejoin="round" fill="none"/>

  <!-- Right side of V with waveform peaks -->
  <path d="M20 8 L21 13 L22 11 L23 14 L24 10 L25 12 L26 15 L27 10 L28 13 L28 10"
        stroke="white" stroke-width="1.5" stroke-linecap="round" stroke-linejoin="round" fill="none"/>

  <!-- V shape formed by amplitude envelope -->
  <path d="M11 10 L20 30 L29 10"
        stroke="white" stroke-width="2.5" stroke-linecap="round" stroke-linejoin="round" fill="none" opacity="0.6"/>

  <!-- Storage vault lock element at bottom of V -->
  <circle cx="20" cy="28" r="3" fill="white"/>
  <rect x="19" y="28" width="2" height="4" fill="white" rx="1"/>

  <!-- Subtle sound wave rings emanating from center -->
  <circle cx="20" cy="20" r="12" stroke="white" stroke-width="0.5" fill="none" opacity="0.2"/>
  <circle cx="20" cy="20" r="15" stroke="white" stroke-width="0.5" fill="none" opacity="0.1"/>
</svg>
